<svg id="visual" viewBox="0 0 960 540" width="960" height="540" xmlns="http://www.w3.org/2000/svg" xmlns:xlink="http://www.w3.org/1999/xlink" version="1.1"><rect x="0" y="0" width="960" height="540" fill="#0d324f"></rect><g transform="translate(449.9908543749916 227.26026380396888)"><path d="M105.8 -110.4C157.3 -82.8 233.3 -68.7 262.3 -27.9C291.3 12.8 273.4 80.2 239.2 136.9C205 193.6 154.5 239.6 92.7 267.9C30.8 296.2 -42.3 306.7 -103.1 284.1C-163.8 261.6 -212.3 206 -216.5 149.1C-220.7 92.1 -180.8 33.6 -167.2 -27.1C-153.7 -87.8 -166.5 -150.8 -143 -183.3C-119.6 -215.8 -59.8 -217.9 -16.3 -198.4C27.1 -179 54.2 -138 105.8 -110.4" fill="#3b6c91"></path></g></svg>